<?xml version="1.0" standalone="no"?>
<!DOCTYPE svg PUBLIC "-//W3C//DTD SVG 20010904//EN"
 "http://www.w3.org/TR/2001/REC-SVG-20010904/DTD/svg10.dtd">
<svg version="1.0" xmlns="http://www.w3.org/2000/svg"
 width="2048.000000pt" height="2048.000000pt" viewBox="0 0 2048.000000 2048.000000"
 preserveAspectRatio="xMidYMid meet">

<g transform="translate(0.000000,2048.000000) scale(0.100000,-0.100000)"
fill="#000000" stroke="none">
<path d="M10505 19190 c-205 -17 -420 -41 -590 -66 -176 -25 -395 -48 -620
-63 -139 -10 -260 -42 -605 -160 -233 -79 -530 -214 -580 -263 -14 -14 -78
-52 -143 -86 -224 -118 -482 -271 -777 -463 -327 -213 -520 -353 -847 -614
-115 -91 -212 -169 -218 -173 -116 -85 -348 -278 -445 -368 -30 -28 -77 -71
-104 -95 -165 -146 -433 -439 -584 -636 -49 -65 -99 -127 -111 -137 -11 -11
-21 -23 -21 -28 0 -5 -28 -55 -63 -109 -234 -375 -375 -695 -477 -1084 -15
-60 -38 -143 -49 -184 -59 -213 -88 -851 -61 -1356 24 -446 100 -1044 170
-1340 10 -44 32 -138 48 -210 84 -362 231 -892 272 -980 5 -11 47 -126 94
-255 91 -255 175 -472 229 -590 19 -41 67 -149 107 -240 39 -91 92 -208 116
-261 24 -52 44 -102 44 -110 0 -38 267 -397 487 -654 71 -82 189 -233 263
-335 74 -102 152 -208 175 -236 22 -28 47 -61 55 -73 8 -13 66 -84 128 -159
62 -76 147 -186 190 -246 130 -184 368 -517 419 -588 26 -37 50 -68 53 -68 3
0 26 18 50 41 148 134 238 209 395 329 61 46 112 87 115 90 17 17 203 140 315
207 107 64 313 168 319 162 2 -2 -9 -101 -24 -219 -39 -290 -76 -615 -91 -782
l-12 -138 -86 0 c-159 0 -585 27 -725 46 -25 4 -46 3 -46 -2 0 -5 50 -72 111
-149 100 -126 132 -164 187 -230 10 -11 37 -46 60 -77 24 -31 60 -69 80 -84
20 -15 116 -106 212 -203 246 -248 377 -341 725 -517 493 -249 977 -358 1645
-371 429 -8 434 -6 881 320 113 82 141 109 262 252 74 88 158 178 186 199 32
24 62 57 76 85 13 25 99 131 192 235 92 103 169 191 171 195 2 7 -157 25 -325
37 -51 3 -93 8 -93 10 0 2 8 48 17 102 19 109 23 484 6 605 -5 37 -8 67 -5 67
2 0 31 -16 63 -35 33 -19 62 -35 64 -35 6 0 222 -127 257 -151 15 -11 30 -19
33 -19 4 0 67 -37 141 -83 74 -45 151 -91 170 -101 l35 -20 292 290 c431 428
531 521 971 908 337 296 623 496 978 686 54 28 100 59 103 70 4 11 12 16 24
13 13 -3 40 21 99 91 89 103 302 333 507 546 197 204 530 606 759 913 125 168
304 430 317 464 4 12 19 39 32 60 42 68 204 367 237 438 57 126 147 358 189
490 23 72 46 139 51 150 33 70 108 404 150 665 86 548 93 1289 15 1743 -31
177 -143 608 -165 627 -3 3 -16 37 -28 75 -13 39 -62 171 -109 295 -154 408
-281 633 -757 1350 -250 376 -306 450 -465 624 -44 49 -109 128 -143 175 -124
172 -280 361 -418 505 -89 92 -277 263 -364 331 -21 17 -44 35 -50 40 -28 25
-161 119 -266 187 -226 147 -506 292 -740 383 -468 183 -964 276 -1575 295
-142 5 -328 17 -430 30 -151 18 -247 22 -600 25 -231 2 -469 -1 -530 -5z
m3825 -4526 c182 -54 317 -177 351 -319 6 -28 16 -59 22 -70 15 -30 21 -308 8
-390 -7 -38 -16 -97 -21 -130 -24 -160 -85 -377 -177 -630 -52 -140 -78 -204
-155 -380 -50 -112 -242 -493 -313 -620 -36 -65 -65 -119 -65 -122 0 -2 -67
-115 -149 -251 -160 -266 -264 -427 -436 -675 -61 -88 -117 -169 -125 -181
-15 -21 -191 -264 -240 -330 -14 -19 -75 -99 -136 -178 -61 -79 -141 -190
-176 -248 -86 -138 -217 -342 -338 -525 -639 -965 -1115 -1460 -1500 -1560
-99 -26 -229 -18 -304 19 -137 67 -273 249 -344 461 -75 222 -98 541 -61 836
5 42 14 130 19 195 5 66 14 166 19 224 5 58 15 170 21 250 11 144 72 486 91
505 5 5 9 18 9 30 0 40 128 412 185 540 7 17 23 53 35 80 53 121 65 147 124
265 109 220 178 341 321 570 138 221 354 531 481 691 240 300 351 430 544 633
475 498 999 909 1440 1127 311 154 695 235 870 183z m-8755 -1245 c74 -19 215
-87 315 -154 149 -99 371 -310 546 -520 32 -38 67 -79 77 -90 95 -101 547
-756 547 -792 0 -4 6 -14 14 -22 8 -9 23 -33 35 -53 56 -100 64 -114 71 -123
21 -28 283 -544 330 -650 26 -59 50 -115 75 -170 86 -191 275 -722 275 -772 0
-7 4 -21 9 -31 5 -9 17 -53 26 -97 10 -44 21 -93 26 -110 5 -16 18 -93 31
-170 18 -114 22 -186 24 -385 1 -233 8 -305 37 -405 7 -22 12 -102 12 -180 0
-150 -8 -186 -73 -325 -131 -280 -481 -239 -955 114 -223 165 -503 446 -712
711 -280 357 -536 763 -767 1215 -132 259 -251 527 -318 715 -104 294 -207
642 -230 775 -5 30 -19 100 -30 155 -12 55 -24 138 -27 185 -3 47 -10 90 -15
97 -15 19 -22 397 -8 473 6 36 15 92 20 125 24 160 104 319 199 393 113 90
314 129 466 91z m3830 -5421 c-10 -27 -77 -413 -105 -603 -40 -273 -58 -451
-66 -641 l-7 -162 -36 4 c-118 13 -411 24 -610 24 l-230 0 -7 37 c-12 62 4
538 29 872 21 278 26 315 42 327 10 8 25 14 33 14 8 0 28 6 45 14 39 18 233
71 313 86 193 37 609 55 599 28z m275 -18 c14 -5 48 -11 75 -15 140 -18 566
-148 743 -227 l44 -19 -7 -62 c-33 -317 -159 -1085 -185 -1127 -8 -13 -408 4
-450 19 -14 5 -101 12 -195 15 -215 8 -244 12 -250 40 -24 105 -33 517 -15
756 14 201 51 613 56 628 3 10 22 11 81 7 43 -4 89 -10 103 -15z m1028 -331
c2 -5 10 -9 18 -9 42 0 725 -344 752 -378 25 -32 10 -402 -24 -592 -17 -94
-52 -231 -63 -242 -3 -4 -47 -3 -96 2 -91 11 -240 24 -440 39 -252 19 -265 21
-265 44 0 11 11 149 25 306 32 376 45 579 45 729 0 123 0 123 23 116 12 -3 24
-11 25 -15z"/>
<path d="M14044 14205 c-10 -8 -14 -15 -8 -15 6 0 38 -17 70 -39 69 -44 122
-116 148 -201 27 -87 28 -88 37 -45 11 58 11 273 -1 280 -5 3 -35 13 -65 21
-72 18 -156 18 -181 -1z"/>
<path d="M13696 14034 c-52 -29 -181 -71 -237 -79 -65 -9 -62 -7 -224 -113
-382 -252 -707 -532 -1139 -982 -277 -290 -616 -722 -851 -1085 -206 -318
-446 -772 -558 -1060 -31 -77 -73 -178 -95 -225 -83 -180 -175 -484 -207 -685
-25 -154 -34 -336 -24 -480 8 -114 14 -163 35 -275 2 -14 -9 9 -25 50 -24 61
-30 69 -30 45 -1 -17 3 -35 8 -40 5 -6 14 -35 20 -65 18 -83 98 -235 160 -303
109 -118 207 -162 361 -162 114 0 201 24 329 92 156 82 379 260 462 371 24 31
63 80 86 108 55 65 55 85 1 43 -76 -58 -74 -55 17 41 209 219 378 462 640 920
62 107 166 276 231 375 182 278 243 384 420 740 151 304 240 470 314 585 16
25 35 56 43 70 8 14 30 52 49 85 284 484 332 581 432 855 15 41 34 91 41 110
8 19 27 80 44 135 89 294 124 538 101 708 -14 106 -33 147 -82 177 -88 54
-259 77 -322 44z m-854 -1496 c66 -50 80 -71 75 -108 -9 -62 -26 -133 -51
-210 -14 -41 -32 -106 -40 -145 -36 -162 -252 -507 -546 -870 -146 -180 -224
-245 -296 -245 -35 0 -47 5 -72 34 -71 81 -88 202 -51 342 12 43 25 113 30
154 4 41 17 102 28 134 49 139 236 453 393 662 61 81 197 213 248 240 43 23
84 31 178 33 62 1 78 -3 104 -21z m-1114 -2161 c29 -23 11 -85 -53 -178 -17
-25 -37 -72 -44 -105 -7 -32 -29 -88 -49 -124 -85 -157 -143 -162 -178 -15
-31 133 -2 217 120 348 52 57 82 81 107 87 37 8 77 3 97 -13z"/>
<path d="M10400 8649 c1 -48 64 -179 122 -256 73 -96 144 -130 253 -121 47 4
197 65 215 87 3 4 29 22 58 40 29 19 51 35 49 37 -2 2 -38 -3 -81 -11 -97 -19
-152 -19 -241 0 -108 23 -202 74 -294 161 -45 42 -81 70 -81 63z"/>
<path d="M5347 13126 c-151 -54 -204 -168 -214 -456 -8 -209 22 -460 89 -760
45 -201 54 -226 192 -558 31 -72 56 -134 56 -136 0 -3 20 -47 44 -98 24 -51
58 -124 76 -163 45 -97 191 -387 234 -465 20 -36 39 -72 43 -80 13 -27 149
-264 206 -357 109 -180 368 -548 438 -624 13 -14 70 -77 126 -141 236 -265
508 -483 678 -542 28 -10 58 -22 69 -28 10 -5 52 -12 92 -15 68 -5 77 -4 112
21 76 53 120 131 157 286 40 168 33 318 -30 624 -14 65 -25 129 -25 142 0 37
-96 377 -130 459 -4 11 -27 72 -50 135 -37 98 -99 256 -130 325 -5 11 -25 58
-46 105 -41 95 -219 454 -281 570 -101 185 -207 359 -347 569 -277 413 -552
745 -794 957 -217 191 -431 277 -565 230z m368 -154 c-3 -3 -11 0 -18 7 -9 10
-8 11 6 5 10 -3 15 -9 12 -12z m564 -1393 c68 -45 127 -138 202 -319 17 -41
41 -97 54 -125 37 -83 102 -284 121 -375 21 -104 24 -259 5 -360 -17 -97 -29
-128 -56 -146 -20 -13 -28 -13 -71 2 -81 27 -183 85 -238 135 -28 25 -61 49
-73 53 -17 6 -36 44 -91 184 -39 97 -75 195 -82 217 -7 22 -16 45 -20 50 -10
13 -55 201 -68 285 -19 117 -24 234 -13 300 17 106 50 125 226 128 51 1 66 -3
104 -29z m804 -1673 c29 -22 21 -70 -24 -141 -23 -35 -48 -66 -56 -69 -32 -13
-71 26 -96 94 -36 97 -13 130 91 130 40 -1 74 -6 85 -14z"/>
<path d="M7747 8566 c-48 -43 -107 -68 -192 -82 l-40 -7 60 -13 c126 -27 165
-13 210 77 42 82 33 89 -38 25z"/>
<path d="M15941 9727 c-6 -6 -11 -16 -11 -21 0 -6 -16 -26 -35 -46 l-34 -35
126 3 c246 7 604 -79 813 -195 202 -112 379 -265 432 -373 61 -122 74 -256 37
-376 -48 -157 -187 -381 -537 -869 l-179 -250 70 -38 c143 -78 499 -324 682
-471 184 -149 399 -365 528 -531 143 -183 290 -431 368 -618 31 -75 33 -78 46
-55 57 102 68 253 27 376 -25 76 -81 182 -96 182 -4 0 -8 5 -8 11 0 6 -6 16
-12 23 -7 8 -20 24 -28 36 -107 161 -405 463 -630 639 -197 155 -499 350 -636
412 l-65 30 18 23 c127 164 247 328 282 387 214 355 286 495 344 669 65 191
71 293 23 395 -13 28 -27 72 -31 98 -18 130 -177 321 -328 395 -134 66 -484
165 -657 187 -149 18 -495 26 -509 12z"/>
<path d="M15823 9572 c-22 -7 -72 -60 -230 -242 -49 -58 -146 -166 -213 -240
-67 -74 -168 -190 -224 -258 -107 -130 -106 -129 -433 -353 -363 -249 -888
-658 -1288 -1004 -77 -66 -169 -145 -205 -174 -204 -167 -889 -852 -1042
-1042 -25 -32 -91 -111 -145 -176 -55 -65 -133 -161 -175 -213 -81 -102 -145
-166 -387 -390 -246 -226 -488 -412 -631 -482 -165 -81 -346 -104 -685 -88
-724 35 -1191 162 -1689 462 -258 155 -405 272 -541 428 -44 51 -109 120 -145
153 -150 140 -484 481 -581 592 -236 271 -511 621 -929 1180 -367 492 -457
595 -519 595 -38 0 -126 -34 -196 -77 -200 -122 -334 -222 -448 -337 -132
-132 -154 -163 -190 -262 -14 -38 -38 -98 -54 -134 -26 -61 -28 -72 -27 -200
2 -163 19 -245 75 -354 55 -109 85 -150 167 -232 l71 -70 -133 -31 c-208 -51
-528 -185 -716 -302 -298 -185 -622 -487 -807 -752 -72 -102 -122 -310 -108
-443 11 -104 12 -105 71 -9 210 335 519 655 839 868 210 140 524 295 752 371
130 44 195 52 246 31 77 -33 26 -92 -108 -125 -257 -64 -649 -242 -915 -416
-284 -186 -563 -469 -775 -786 -67 -99 -71 -108 -73 -167 -1 -34 2 -64 7 -67
11 -7 92 99 83 109 -4 4 -2 5 3 3 6 -2 43 34 82 78 177 201 423 401 753 612
302 193 498 289 780 383 396 132 519 145 473 50 -23 -46 -40 -54 -193 -95
-265 -72 -505 -158 -677 -244 -208 -105 -614 -363 -783 -498 -113 -91 -306
-278 -396 -386 l-73 -87 30 -32 c16 -17 29 -35 29 -39 0 -35 285 -63 940 -90
140 -6 289 -15 330 -20 50 -6 81 -5 94 2 27 15 665 4 966 -16 124 -8 333 -20
465 -26 465 -20 536 -27 895 -84 273 -43 484 -61 1070 -91 326 -16 493 -30
550 -45 29 -8 59 -4 150 19 128 32 410 82 600 105 310 38 503 48 995 51 613 3
746 15 1089 101 381 96 531 116 871 116 534 0 1502 -21 1645 -36 80 -8 294
-24 475 -35 473 -30 443 -26 463 -49 32 -38 344 -124 493 -137 140 -13 294 18
604 120 61 20 135 47 165 60 30 13 160 65 288 116 127 50 232 96 232 102 0 24
-92 279 -138 382 -143 320 -352 606 -691 945 -204 203 -359 334 -462 385 l-49
25 -78 -58 c-248 -188 -619 -407 -1178 -693 -242 -125 -274 -139 -274 -121 0
5 136 91 303 192 509 309 817 504 1049 667 76 53 105 79 101 90 -7 18 13 33
45 33 20 0 80 44 249 185 18 15 24 28 21 50 -3 28 -1 30 36 33 34 3 53 16 135
93 53 49 104 89 113 89 21 0 53 -44 43 -60 -3 -5 -12 -10 -20 -10 -12 0 -156
-141 -163 -159 -1 -4 48 -43 109 -86 292 -208 657 -556 905 -864 177 -219 361
-521 450 -738 27 -66 49 -107 57 -105 27 8 152 90 215 143 37 30 106 86 154
123 88 68 208 189 208 211 0 6 -13 49 -29 96 -141 413 -362 761 -696 1094
-172 173 -539 477 -769 638 -155 108 -162 118 -134 170 6 12 104 153 218 312
327 458 454 658 495 780 61 181 28 326 -103 455 -83 81 -286 219 -401 272 -95
45 -315 110 -460 138 -104 20 -332 34 -368 22z"/>
<path d="M15897 6844 c-3 -3 -3 -12 0 -20 3 -9 0 -12 -8 -9 -13 5 -189 -139
-189 -153 0 -4 31 -23 68 -43 213 -116 610 -475 839 -761 233 -291 368 -530
512 -909 l10 -27 85 45 c54 27 86 50 86 60 0 38 -77 240 -145 378 -160 327
-398 639 -785 1026 -107 107 -249 240 -315 294 -66 54 -127 104 -136 112 -9 7
-18 10 -22 7z"/>
<path d="M13603 4373 c-16 -11 -33 -58 -33 -92 0 -15 11 -65 25 -111 27 -96
42 -254 100 -1055 19 -269 44 -588 55 -708 l21 -218 -35 -43 c-33 -40 -36 -48
-42 -137 -5 -85 -3 -105 26 -214 18 -66 38 -151 46 -189 20 -100 22 -105 74
-160 26 -28 59 -71 73 -96 23 -42 28 -45 72 -48 78 -5 89 1 536 300 169 112
322 212 340 221 19 9 59 35 89 56 30 22 75 52 100 67 304 187 518 355 657 516
46 53 87 100 92 103 18 10 137 189 177 265 22 41 51 111 63 155 13 44 27 88
32 97 20 39 10 110 -26 184 -30 63 -51 87 -153 182 -169 156 -219 191 -517
359 -80 46 -417 195 -565 250 -30 12 -91 35 -135 53 -233 92 -614 216 -755
246 -87 18 -299 29 -317 17z m606 -635 c97 -51 199 -103 226 -116 94 -46 350
-190 475 -268 69 -42 147 -90 174 -106 75 -44 226 -160 226 -172 -1 -13 -7
-18 -165 -123 -125 -83 -237 -148 -415 -241 -58 -30 -142 -76 -188 -103 -45
-27 -84 -49 -86 -49 -2 0 -32 -16 -66 -35 -34 -19 -66 -35 -70 -35 -5 0 -25
66 -45 148 -20 81 -43 172 -51 202 -8 30 -48 222 -90 425 -41 204 -84 409 -95
457 -21 96 -22 108 -12 108 3 0 85 -41 182 -92z"/>
<path d="M4423 4310 c-128 -34 -174 -67 -215 -155 -19 -43 -23 -66 -22 -160 0
-99 3 -118 32 -195 39 -103 116 -240 190 -340 68 -92 287 -317 402 -414 160
-135 506 -396 525 -396 3 0 61 -37 128 -82 67 -46 230 -151 362 -234 131 -83
241 -156 242 -161 10 -29 -277 -120 -557 -178 -211 -43 -615 -76 -905 -74
-245 2 -324 -9 -353 -48 -23 -31 -8 -95 44 -189 53 -95 125 -164 194 -184 122
-35 695 25 1130 118 416 90 637 172 738 273 69 69 132 231 132 340 0 112 -33
150 -236 275 -60 37 -133 82 -164 102 -30 19 -129 80 -220 135 -338 204 -631
398 -801 530 -250 194 -403 343 -523 510 -55 78 -58 84 -53 129 8 64 41 124
80 145 56 30 126 22 220 -25 109 -56 229 -153 423 -347 130 -129 190 -199 308
-358 113 -152 157 -204 194 -227 71 -45 89 -41 150 33 58 68 73 104 51 121 -8
6 -25 34 -39 61 -110 219 -438 589 -685 773 -131 98 -318 195 -429 222 -103
26 -245 26 -343 0z"/>
<path d="M12643 4195 c-11 -8 -23 -27 -26 -42 -3 -15 3 -129 14 -253 10 -124
34 -443 54 -710 19 -267 40 -552 46 -635 6 -82 14 -280 19 -440 7 -254 11
-299 30 -365 12 -41 26 -100 32 -130 11 -63 26 -95 60 -130 13 -14 36 -44 52
-67 26 -38 33 -43 68 -43 51 0 86 19 132 72 21 24 54 60 72 81 19 21 34 46 34
57 0 11 13 29 29 41 16 11 35 33 42 48 8 14 23 40 35 56 28 38 58 145 52 182
-3 15 -18 71 -33 123 -48 164 -101 412 -175 805 -116 619 -175 903 -223 1085
-60 226 -90 264 -218 274 -57 4 -80 2 -96 -9z"/>
<path d="M9161 4151 c-82 -82 -75 -203 41 -676 26 -110 53 -209 58 -220 15
-32 185 -735 205 -848 14 -83 -43 -194 -134 -261 -76 -56 -270 -153 -350 -175
l-73 -20 -39 20 c-128 65 -217 259 -254 549 -15 115 -17 190 -11 520 3 212 9
449 12 528 l6 143 -37 36 c-40 39 -82 52 -166 53 -45 0 -59 -4 -76 -22 -70
-76 -174 -708 -189 -1158 -8 -206 3 -324 51 -565 47 -234 82 -328 164 -440 20
-27 54 -76 75 -108 79 -118 239 -230 364 -256 67 -14 210 -14 288 -1 118 21
296 95 413 170 85 55 263 230 350 344 145 191 208 325 233 496 9 61 8 97 -5
190 -17 116 -79 388 -97 425 -5 11 -36 124 -69 250 -33 127 -80 307 -104 400
-130 493 -128 485 -186 515 -23 11 -41 27 -41 35 0 7 -10 26 -23 40 -17 20
-33 27 -72 30 -28 2 -88 8 -135 14 -135 16 -177 14 -199 -8z"/>
<path d="M10340 4099 c-92 -10 -190 -34 -208 -53 -11 -11 -9 -46 13 -222 14
-115 30 -220 35 -234 4 -14 16 -77 25 -140 46 -320 223 -1310 259 -1450 59
-223 150 -532 169 -566 12 -23 37 -65 56 -93 33 -50 35 -51 83 -51 47 0 50 2
122 74 40 41 76 86 80 99 3 14 15 28 25 32 36 11 121 181 121 242 0 7 -17 32
-39 56 -70 77 -201 320 -260 483 l-29 81 66 13 c81 15 385 105 427 126 17 8
62 26 100 39 97 32 465 190 534 228 66 36 193 120 236 154 53 43 205 216 251
285 49 75 78 142 88 204 11 63 -14 108 -106 197 -85 82 -160 127 -315 188 -43
16 -91 36 -108 43 -55 24 -89 35 -230 75 -356 102 -735 170 -1065 190 -183 12
-220 12 -330 0z m200 -348 c358 -76 835 -229 1097 -352 l91 -43 -38 -17 c-21
-10 -94 -38 -162 -64 -68 -25 -137 -52 -154 -60 -121 -56 -556 -164 -726 -181
l-67 -7 -16 59 c-9 33 -30 104 -45 159 -44 153 -140 515 -140 526 0 13 8 12
160 -20z"/>
<path d="M6045 3965 c-206 -36 -257 -59 -274 -120 -12 -45 0 -91 49 -180 55
-99 87 -121 212 -146 106 -21 375 -95 393 -108 6 -4 55 -20 111 -35 l101 -29
6 -216 c7 -240 27 -455 83 -856 25 -183 38 -312 39 -400 1 -150 11 -190 63
-271 21 -32 48 -80 61 -106 13 -27 36 -56 54 -67 18 -11 43 -31 56 -45 30 -32
69 -33 105 -5 28 22 96 152 96 183 0 10 9 29 20 43 11 14 20 34 20 43 0 10 7
31 15 46 24 47 19 123 -16 210 -57 143 -222 751 -274 1014 -9 47 -21 94 -26
105 -7 16 -48 246 -45 252 1 1 64 -14 141 -33 77 -19 221 -50 320 -69 232 -44
318 -61 382 -76 47 -10 55 -9 98 12 26 13 58 37 70 54 34 45 97 185 91 200 -3
8 4 25 15 39 25 32 40 99 46 211 4 81 3 93 -17 117 -13 17 -35 30 -58 34 -20
4 -55 22 -77 40 -52 42 -105 51 -380 64 -250 12 -395 24 -475 41 -30 6 -98 12
-150 14 -52 2 -200 15 -328 29 -249 28 -413 31 -527 11z"/>
<path d="M11929 1722 c-8 -4 -22 -13 -30 -20 -8 -6 -25 -21 -39 -31 -24 -18
-25 -24 -25 -118 0 -89 3 -104 30 -158 36 -71 63 -86 124 -65 84 27 211 158
211 216 0 11 -14 41 -30 68 -24 38 -43 53 -93 76 -67 31 -123 43 -148 32z"/>
<path d="M6300 1655 c-11 -13 -15 -43 -15 -104 0 -72 4 -94 25 -136 34 -69 66
-72 138 -14 29 22 58 52 66 66 12 23 10 32 -27 95 -47 80 -66 95 -128 104 -36
5 -48 3 -59 -11z"/>
<path d="M7469 1643 c-6 -16 -13 -57 -15 -93 -7 -111 33 -160 107 -130 36 15
87 72 95 107 11 41 -22 91 -78 119 -64 33 -95 32 -109 -3z"/>
<path d="M10005 1610 c-4 -6 -11 -8 -16 -4 -22 13 -57 -6 -68 -37 -14 -41 -14
-120 0 -156 25 -62 33 -73 67 -89 41 -19 60 -13 135 44 46 35 87 94 87 125 0
8 -13 32 -29 55 -24 32 -41 43 -84 56 -64 19 -83 20 -92 6z"/>
<path d="M13438 1571 c-41 -20 -54 -48 -62 -132 -6 -53 -3 -76 14 -121 24 -66
47 -77 100 -49 19 10 46 21 60 24 15 4 45 24 67 44 63 59 69 111 17 173 -51
60 -142 88 -196 61z"/>
</g>
</svg>
